Coordinates
version=1
nRows=12
nColumns=38
inDegrees=yes

Units are S.I. units (second, meters, Newtons, ...)
Angles are in degrees.

endheader
time	pelvis_tilt	pelvis_list	pelvis_rotation	pelvis_tx	pelvis_ty	pelvis_tz	hip_flexion_r	hip_adduction_r	hip_rotation_r	knee_angle_r	ankle_angle_r	subtalar_angle_r	mtp_angle_r	hip_flexion_l	hip_adduction_l	hip_rotation_l	knee_angle_l	ankle_angle_l	subtalar_angle_l	mtp_angle_l	lumbar_extension	lumbar_bending	lumbar_rotation	arm_flex_r	arm_add_r	arm_rot_r	elbow_flex_r	pro_sup_r	wrist_flex_r	wrist_dev_r	arm_flex_l	arm_add_l	arm_rot_l	elbow_flex_l	pro_sup_l	wrist_flex_l	wrist_dev_l
      1.74000000	     -2.64123771	     -0.86918111	     -2.17822253	      0.47995707	      0.94703691	     -0.31811383	     27.92127376	      1.32660311	     -4.96264601	    -58.57704609	     -0.85024513	    -11.35037708	      0.00000000	      1.61665873	      2.75157579	     -1.92051725	    -12.55075131	     10.36183940	     -8.93389291	      0.00000000	     -6.25216563	      1.58060107	     -4.12006594	      1.31158619	    -10.81929047	     37.72297403	     41.43845622	     43.03821931	      0.00000000	      0.00000000	      0.80269439	    -11.60792572	     42.77239616	     30.43991321	     43.03821931	      0.00000000	      0.00000000
      1.75000000	     -2.55613664	     -1.01887032	     -1.87060305	      0.49166267	      0.94669589	     -0.31857440	     28.37716656	      1.56882537	     -4.98652675	    -56.19272213	      0.40067137	    -10.61279376	      0.00000000	      0.58743628	      2.64217139	     -1.86424500	    -12.25354581	     10.54417337	     -8.87457173	      0.00000000	     -6.42129228	      1.79018793	     -4.42903264	      0.28822345	    -11.01741943	     38.16766237	     40.40353947	     43.06839351	      0.00000000	      0.00000000	      2.13259457	    -11.95843204	     42.45791945	     30.89420814	     43.06839351	      0.00000000	      0.00000000
      1.76000000	     -2.54273332	     -1.10815177	     -1.54973868	      0.50325808	      0.94607442	     -0.31890297	     28.86338944	      1.74357442	     -5.15017473	    -53.58977026	      0.85967654	    -10.88712725	      0.00000000	     -0.30931630	      2.57868957	     -1.92479867	    -12.01786739	     10.99550117	     -8.55532899	      0.00000000	     -6.51932912	      1.91029236	     -4.81567783	      0.08711305	    -10.32857844	     39.31078618	     35.93710180	     43.19895817	      0.00000000	      0.00000000	      2.95734142	    -12.73565881	     41.57168821	     32.97118758	     43.19895817	      0.00000000	      0.00000000
      1.77000000	     -2.47715340	     -1.19787733	     -1.18799055	      0.51526727	      0.94529282	     -0.31918241	     29.20591126	      1.79728275	     -5.50615578	    -50.79874866	      1.26204884	    -10.59218539	      0.00000000	     -1.26879078	      2.48307401	     -1.83898577	    -11.82754624	     11.44706419	     -8.33348283	      0.00000000	     -6.61551110	      2.02472529	     -5.13039995	     -1.21407408	    -10.50067342	     39.58595556	     35.15784742	     43.21763269	      0.00000000	      0.00000000	      4.26240513	    -13.06462074	     41.16593864	     33.40722535	     43.21763269	      0.00000000	      0.00000000
      1.78000000	     -2.45010675	     -1.16004645	     -0.81259093	      0.52710762	      0.94432855	     -0.31944861	     29.32231723	      1.77265123	     -5.69984760	    -47.53582687	      2.08071086	    -10.13442736	      0.00000000	     -2.14631498	      2.52219817	     -1.62561222	    -11.70821920	     11.59710408	     -8.15420642	      0.00000000	     -6.71176082	      1.95382407	     -5.70415468	     -0.35256892	    -10.02688304	     47.01781417	     28.72671284	     43.83430000	      0.00000000	      0.00000000	      3.09807507	    -13.51709816	     31.95121758	     39.75066124	     43.83430000	      0.00000000	      0.00000000
      1.79000000	     -2.48962467	     -1.16406991	     -0.44129142	      0.53898785	      0.94320349	     -0.31972356	     29.71294160	      1.60596263	     -6.55771630	    -44.39160244	      1.84992882	    -10.03013420	      0.00000000	     -2.92553537	      2.50360315	     -1.43183301	    -11.65386613	     11.82647991	     -7.99288030	      0.00000000	     -6.72001032	      1.98526052	     -6.04740422	     -1.56777655	    -10.18427604	     47.03648960	     28.20179940	     43.84227249	      0.00000000	      0.00000000	      4.36360121	    -13.87318055	     31.73621327	     40.14612333	     43.84227249	      0.00000000	      0.00000000
      1.80000000	     -2.47351694	     -1.20914569	     -0.04740446	      0.55105366	      0.94198662	     -0.31990878	     29.78470006	      1.60044541	     -6.92271653	    -40.89291471	      2.07698418	     -9.33035921	      0.00000000	     -3.72826934	      2.40994177	     -1.42038026	    -11.69302741	     12.23085179	     -7.63971323	      0.00000000	     -6.79468490	      2.05423361	     -6.32256704	     -2.47366890	     -9.58148106	     46.35521916	     25.43599500	     43.91456438	      0.00000000	      0.00000000	      5.23896130	    -14.46719497	     31.17829819	     42.24440150	     43.91456438	      0.00000000	      0.00000000
      1.81000000	     -2.47124981	     -1.21851554	      0.34916950	      0.56313541	      0.94072121	     -0.32014000	     29.60466249	      1.51747990	     -7.46760579	    -36.97057399	      2.55172343	     -8.45182480	      0.00000000	     -4.50967664	      2.34386997	     -0.98396404	    -11.76762670	     12.47614356	     -7.43153205	      0.00000000	     -6.84314847	      2.10148083	     -6.56566826	     -3.72027103	     -9.71554478	     46.37678190	     24.86835359	     43.92651370	      0.00000000	      0.00000000	      6.47265551	    -14.67222910	     30.76473005	     42.86776205	     43.92651370	      0.00000000	      0.00000000
      1.82000000	     -2.62721034	     -1.13941371	      0.78206924	      0.57553483	      0.93912958	     -0.32027390	     29.54777214	      1.42230923	     -7.65444172	    -33.02734443	      3.03414992	     -7.67670406	      0.00000000	     -5.14055397	      2.33850822	     -0.63713196	    -11.80793107	     12.52757441	     -7.17940477	      0.00000000	     -6.65810281	      2.02717586	     -6.99639167	     -4.86260562	     -9.81759830	     46.37323420	     24.37851663	     43.93241245	      0.00000000	      0.00000000	      7.46218436	    -15.04755197	     30.44255943	     43.33423391	     43.93241245	      0.00000000	      0.00000000
      1.83000000	     -2.60060497	     -1.21826066	      1.18786352	      0.58825918	      0.93772591	     -0.32023388	     29.19065324	      1.45742278	     -8.08470179	    -28.97365586	      3.53155424	     -6.75522382	      0.00000000	     -6.00513470	      2.14338333	     -0.22801006	    -11.83002799	     12.78063648	     -6.96037159	      0.00000000	     -6.66940806	      2.11894207	     -7.21101360	     -6.08171568	     -9.86132613	     46.28627590	     23.66946442	     43.94090650	      0.00000000	      0.00000000	      8.58511405	    -15.26604124	     30.06463327	     44.20621463	     43.94090650	      0.00000000	      0.00000000
      1.84000000	     -2.53074951	     -1.31147364	      1.60945994	      0.60116276	      0.93632612	     -0.32017731	     28.69140503	      1.46714432	     -8.60877539	    -24.90318421	      3.98631401	     -5.75995116	      0.00000000	     -6.93932709	      1.89509529	      0.06411973	    -11.81215791	     12.96857719	     -6.57612591	      0.00000000	     -6.72995379	      2.23894689	     -7.39860030	     -7.11294583	     -9.78324953	     46.00430415	     22.60654942	     43.95670659	      0.00000000	      0.00000000	      9.45033007	    -15.50468820	     29.47974403	     45.78802639	     43.95670659	      0.00000000	      0.00000000
      1.85000000	     -2.59504908	     -1.36844514	      2.05484056	      0.61418632	      0.93473467	     -0.31997780	     28.27758059	      1.46102747	     -9.19513431	    -20.90517137	      4.33440040	     -5.22723724	      0.00000000	     -7.62328561	      1.63151649	      0.14441267	    -11.95453927	     13.09640563	     -6.11414917	      0.00000000	     -6.62868049	      2.29077984	     -7.68560786	     -8.17670126	     -9.68008092	     45.78634426	     21.77737768	     43.97107715	      0.00000000	      0.00000000	     10.17900488	    -15.81986817	     28.81599592	     47.31867289	     43.97107715	      0.00000000	      0.00000000
